<svg width="24" height="24" viewBox="0 0 24 24" fill="none" xmlns="http://www.w3.org/2000/svg">
<path d="M12 5C12.67 5 13.35 5.09 14 5.26C15.78 3.26 19.03 2.42 20.42 3C21.82 3.58 20 10 20 10C20.57 11.07 21 12.24 21 13.44C21 17.9 16.97 21 12 21C7.02999 21 2.99999 18 2.99999 13.44C2.99999 12.19 3.49999 11.04 3.99999 10C3.99999 10 2.10999 3.58 3.49999 3C4.88999 2.42 8.21999 3.23 9.99999 5.23C10.656 5.07911 11.3268 5.00196 12 5Z" stroke="black" stroke-width="2" stroke-linecap="round" stroke-linejoin="round"/>
<path d="M8 14V14.5" stroke="black" stroke-width="2" stroke-linecap="round" stroke-linejoin="round"/>
<path d="M16 14V14.5" stroke="black" stroke-width="2" stroke-linecap="round" stroke-linejoin="round"/>
<path d="M11.25 16.25H12.75L12 17L11.25 16.25Z" stroke="black" stroke-width="2" stroke-linecap="round" stroke-linejoin="round"/>
</svg>
